<svg width="32" height="20" viewBox="0 0 32 20" fill="none" xmlns="http://www.w3.org/2000/svg">
<rect width="32" height="20" rx="10" fill="#30B5DF"/>
<path d="M14.539 11.904C14.539 12.4027 14.4143 12.8573 14.165 13.268C13.923 13.6787 13.5856 14.005 13.153 14.247C12.7276 14.489 12.251 14.61 11.723 14.61C11.151 14.61 10.6486 14.4743 10.216 14.203C9.79063 13.9243 9.45696 13.5247 9.21496 13.004C8.98029 12.4833 8.86296 11.8637 8.86296 11.145C8.86296 10.1477 8.98396 9.31533 9.22596 8.648C9.47529 7.98067 9.82363 7.47833 10.271 7.141C10.7183 6.80367 11.2426 6.635 11.844 6.635C12.3426 6.635 12.7973 6.75233 13.208 6.987C13.626 7.21433 13.9633 7.53333 14.22 7.944L13.505 8.692C13.3363 8.384 13.1016 8.142 12.801 7.966C12.5076 7.78267 12.1813 7.691 11.822 7.691C11.4626 7.691 11.1436 7.79733 10.865 8.01C10.5936 8.21533 10.381 8.516 10.227 8.912C10.0803 9.308 10.0033 9.78833 9.99596 10.353C10.106 10.133 10.249 9.946 10.425 9.792C10.6083 9.63067 10.821 9.506 11.063 9.418C11.305 9.33 11.5616 9.286 11.833 9.286C12.3463 9.286 12.8046 9.40333 13.208 9.638C13.6186 9.87267 13.9413 10.188 14.176 10.584C14.418 10.9727 14.539 11.4127 14.539 11.904ZM11.723 13.576C12.0236 13.576 12.2986 13.5027 12.548 13.356C12.8046 13.202 13.0063 12.9967 13.153 12.74C13.307 12.4833 13.384 12.2047 13.384 11.904C13.384 11.6033 13.307 11.3283 13.153 11.079C13.0063 10.8297 12.8083 10.6317 12.559 10.485C12.3096 10.331 12.031 10.254 11.723 10.254C11.4296 10.254 11.1546 10.331 10.898 10.485C10.6413 10.6317 10.436 10.8297 10.282 11.079C10.1353 11.3283 10.062 11.6033 10.062 11.904C10.062 12.2047 10.139 12.4833 10.293 12.74C10.447 12.9893 10.6486 13.191 10.898 13.345C11.1546 13.499 11.4296 13.576 11.723 13.576ZM19.8446 14.61C19.2946 14.5953 18.8106 14.467 18.3926 14.225C17.9746 13.983 17.6263 13.6677 17.3476 13.279C17.0689 12.883 16.8563 12.4577 16.7096 12.003C16.5703 11.541 16.5006 11.09 16.5006 10.65C16.5006 10.1807 16.5776 9.71133 16.7316 9.242C16.8856 8.77267 17.1093 8.34733 17.4026 7.966C17.6959 7.57733 18.0479 7.26933 18.4586 7.042C18.8693 6.80733 19.3313 6.69 19.8446 6.69C20.3946 6.69 20.8749 6.81467 21.2856 7.064C21.7036 7.31333 22.0519 7.636 22.3306 8.032C22.6093 8.428 22.8183 8.857 22.9576 9.319C23.1043 9.781 23.1776 10.2247 23.1776 10.65C23.1776 11.1267 23.1006 11.5997 22.9466 12.069C22.7926 12.531 22.5689 12.9527 22.2756 13.334C21.9896 13.7153 21.6413 14.0233 21.2306 14.258C20.8199 14.4853 20.3579 14.6027 19.8446 14.61ZM17.7546 10.65C17.7693 10.9873 17.8169 11.3247 17.8976 11.662C17.9856 11.992 18.1176 12.2963 18.2936 12.575C18.4696 12.8537 18.6859 13.0773 18.9426 13.246C19.1993 13.4147 19.4999 13.499 19.8446 13.499C20.2039 13.499 20.5119 13.411 20.7686 13.235C21.0326 13.0517 21.2489 12.817 21.4176 12.531C21.5863 12.2377 21.7109 11.926 21.7916 11.596C21.8796 11.266 21.9236 10.9507 21.9236 10.65C21.9236 10.3127 21.8759 9.979 21.7806 9.649C21.6926 9.31167 21.5606 9.00367 21.3846 8.725C21.2086 8.44633 20.9923 8.22267 20.7356 8.054C20.4789 7.88533 20.1819 7.801 19.8446 7.801C19.4853 7.801 19.1736 7.89267 18.9096 8.076C18.6456 8.252 18.4293 8.48667 18.2606 8.78C18.0919 9.066 17.9636 9.374 17.8756 9.704C17.7949 10.034 17.7546 10.3493 17.7546 10.65Z" fill="#FAFAFA"/>
</svg>
